<svg aria-hidden="true" style="position: absolute; width: 0; height: 0; overflow: hidden;" version="1.1" xmlns="http://www.w3.org/2000/svg" xmlns:xlink="http://www.w3.org/1999/xlink">
<defs>
<symbol id="icon-unlock" viewBox="0 0 27 32">
<path fill="#f1f1f1" style="fill: var(--color1, #f1f1f1)" d="M22.698 8.305c2.427 2.189 3.323 6.455 2.401 10.228-0.928 3.773-3.667 7.053-7.412 9.241-3.745 2.182-8.487 3.279-11.655 1.565s-4.743-6.228-5.542-10.656c-0.792-4.429-0.805-8.767 1.304-10.884 2.109-2.11 6.335-2.006 10.428-1.902 4.095 0.11 8.053 0.221 10.474 2.409z"></path>
<path fill="#e49d75" style="fill: var(--color2, #e49d75)" d="M20.715 30.629h-0.787v0.526h0.787v-0.526z"></path>
<path fill="#e49d75" style="fill: var(--color2, #e49d75)" d="M24.599 29.657l-0.575 0.465 0.411 0.51 0.575-0.465-0.411-0.51z"></path>
<path fill="#e49d75" style="fill: var(--color2, #e49d75)" d="M21.239 9.149h-0.036c-0.162 0-0.294 0.131-0.294 0.294v0.151c0 0.162 0.131 0.294 0.294 0.294h0.036c0.162 0 0.294-0.131 0.294-0.294v-0.151c0-0.162-0.131-0.294-0.294-0.294z"></path>
<path fill="#5fc5d1" style="fill: var(--color3, #5fc5d1)" d="M21.482 20.248c0.107 0.245 0.927 5.172 1.048 5.638s2.049 3.504 2.18 3.686c0.040 0.263-0.555 0.707-0.838 0.707-0.282-0.223-3.581-5.006-3.66-5.219s-0.345-5.294 1.27-4.812z"></path>
<path fill="#6bd5e1" style="fill: var(--color4, #6bd5e1)" d="M18.039 19.432c-0.038 0.203 0.52 4.853 0.589 5.478s1.137 5.655 1.232 5.781c0.095 0.126 0.814 0.099 0.938 0.036s-0.242-5.246-0.242-5.621c0-0.376 0.963-3.841 0.839-4.845s-3.355-0.828-3.355-0.828z"></path>
<path fill="#e49d75" style="fill: var(--color2, #e49d75)" d="M20.772 13.796h-0.753v1.311h0.753v-1.311z"></path>
<path fill="#e0e0e0" style="fill: var(--color5, #e0e0e0)" d="M16.123 4.919h-11.937c-0.442 0-0.8 0.358-0.8 0.8v11.945c0 0.442 0.358 0.8 0.8 0.8h11.937c0.442 0 0.8-0.358 0.8-0.8v-11.945c0-0.442-0.358-0.8-0.8-0.8z"></path>
<path fill="#a4a4a4" style="fill: var(--color6, #a4a4a4)" d="M11.001 11.091c0.186-0.171 0.316-0.393 0.373-0.639s0.039-0.503-0.053-0.738c-0.091-0.235-0.252-0.437-0.46-0.579s-0.454-0.219-0.706-0.219c-0.252 0-0.498 0.076-0.706 0.219s-0.368 0.344-0.46 0.579-0.11 0.492-0.053 0.738c0.057 0.246 0.187 0.468 0.373 0.639l-0.964 3.911h3.619l-0.963-3.911z"></path>
<path fill="none" stroke="#e0e0e0" style="stroke: var(--color5, #e0e0e0)" stroke-linejoin="round" stroke-linecap="round" stroke-miterlimit="4" stroke-width="1.0976" d="M5.809 4.919c0.010-1.146 0.473-2.242 1.287-3.049s1.913-1.26 3.059-1.26c1.146 0 2.245 0.453 3.059 1.26s1.276 1.903 1.287 3.049"></path>
<path fill="#e49d75" style="fill: var(--color2, #e49d75)" d="M20.298 14.011c0.571 0 1.034-0.623 1.034-1.392s-0.463-1.392-1.034-1.392c-0.571 0-1.034 0.623-1.034 1.392s0.463 1.392 1.034 1.392z"></path>
<path fill="#ffd98e" style="fill: var(--color7, #ffd98e)" d="M20.157 14.837c-1.254 0-2.371 3.481-2.157 4.636 0.063 0.341 3.064 1.030 3.523 0.933 0.163-0.222 0.828-5.569-1.366-5.569z"></path>
<path fill="#ffe4ad" style="fill: var(--color8, #ffe4ad)" d="M19.836 16.775c0.561-0.408-0.336-2.382-0.546-2.416-0.386-0.062-1.347 0.678-1.316 0.989 0.016 0.164 1.29 1.842 1.862 1.427z"></path>
<path fill="#e49d75" style="fill: var(--color2, #e49d75)" d="M18.152 15.202c-0.151-0.182-0.529-1.071-0.57-1.282s-0.143-3.381-0.143-3.568-0.25-0.661-0.25-0.944c0-0.283 0.287-0.666 0.434-0.671 0.156 0.111 0.373 0.762 0.383 0.928 0.055-0.357 0.313-0.439 0.383-0.439s0.061 0.551-0.231 0.922c0.010 0.273 0.357 2.973 0.413 3.129s0.694 1.181 0.692 1.271c-0.001 0.091-1.111 0.653-1.111 0.653z"></path>
<path fill="#a4a4a4" style="fill: var(--color6, #a4a4a4)" d="M25.862 10.156l-12.653-1.73-0.049 0.362 12.653 1.73 0.049-0.362z"></path>
<path fill="#a4a4a4" style="fill: var(--color6, #a4a4a4)" d="M13.934 8.894l-0.774-0.106-0.143 1.048 0.774 0.106 0.143-1.048z"></path>
<path fill="#a4a4a4" style="fill: var(--color6, #a4a4a4)" d="M14.679 8.996l-0.416-0.057-0.143 1.048 0.416 0.057 0.143-1.048z"></path>
<path fill="#e49d75" style="fill: var(--color2, #e49d75)" d="M21.566 11.919c-0.030-0.169-0.056-1.395-0.011-1.568s0.169-0.299 0.224-0.558c0.019-0.089-0.011-0.396-0.071-0.409-0.13-0.028-0.137 0.118-0.154 0.225-0.066 0.365-0.201 0.298-0.264 0.29s-0.277-0.046-0.347-0.048c-0.070-0.002 0.109 0.143 0.054 0.374-0.043 0.182-0.244 1.392-0.285 1.59 0.15 0.006 0.854 0.105 0.854 0.105z"></path>
<path fill="#a4a4a4" style="fill: var(--color6, #a4a4a4)" d="M15.389 9.093l-0.416-0.057-0.143 1.048 0.416 0.057 0.143-1.048z"></path>
<path fill="#a4a4a4" style="fill: var(--color6, #a4a4a4)" d="M15.389 9.093l-2.229-0.305-0.051 0.371 2.229 0.305 0.051-0.371z"></path>
<path fill="#a4a4a4" style="fill: var(--color6, #a4a4a4)" d="M26.2 9.424c-0.185-0.025-0.374 0.005-0.542 0.087s-0.308 0.212-0.403 0.374c-0.094 0.162-0.139 0.348-0.127 0.535s0.078 0.366 0.191 0.515c0.113 0.149 0.268 0.261 0.445 0.323s0.368 0.068 0.549 0.021c0.181-0.047 0.344-0.148 0.468-0.288s0.204-0.314 0.23-0.499c0.017-0.123 0.009-0.249-0.022-0.369s-0.086-0.234-0.162-0.333c-0.075-0.099-0.169-0.183-0.277-0.245s-0.226-0.104-0.349-0.121zM26.71 10.449c-0.017 0.126-0.072 0.245-0.156 0.34s-0.195 0.164-0.319 0.196c-0.123 0.032-0.253 0.028-0.374-0.014s-0.226-0.118-0.303-0.22c-0.077-0.102-0.122-0.224-0.13-0.351s0.023-0.254 0.087-0.364c0.064-0.11 0.16-0.199 0.274-0.255s0.243-0.076 0.369-0.059c0.169 0.023 0.322 0.113 0.426 0.249s0.148 0.308 0.125 0.477z"></path>
<path fill="#e49d75" style="fill: var(--color2, #e49d75)" d="M18.162 10.146c-0.047-0.184-0.139-0.346-0.154-0.485v0.004c-0.010-0.166-0.227-0.817-0.383-0.928-0.146 0.005-0.434 0.388-0.434 0.671 0 0.207 0.136 0.517 0.208 0.742h0.761l0.001-0.005z"></path>
<path fill="#000" style="fill: var(--color9, #000)" d="M19.366 11.748c0 0.481 0.34 0.778 0.878 0.944 0 0.659 0.102 0.688 0.102 1.089 0 0.864-0.147 0.432-0.147 1.924 0 0.9 0.377 1.389 1.070 1.389 0.838 0 1.319-0.887 1.319-1.366 0-0.607-0.6-1.661-0.642-2.536-0.058-1.178-0.424-2.163-1.342-2.163-0.784 0-1.238 0.292-1.238 0.718z"></path>
<path fill="#e49d75" style="fill: var(--color2, #e49d75)" d="M20.297 13.083c0.154 0 0.278-0.125 0.278-0.278s-0.125-0.278-0.278-0.278c-0.154 0-0.278 0.125-0.278 0.278s0.125 0.278 0.278 0.278z"></path>
<path fill="#000" style="fill: var(--color9, #000)" d="M25.009 30.064l0.446 0.609-0.932 1.32-0.88 0.006 0.011-0.446 0.353-0.156 0.314-0.776 0.688-0.556z"></path>
<path fill="#000" style="fill: var(--color9, #000)" d="M20.768 31.111v0.889h-2.611v-0.394l1.723-0.495h0.888z"></path>
</symbol>
<symbol id="icon-Layer" viewBox="0 0 31 32">
<path fill="#f8f8f8" style="fill: var(--color10, #f8f8f8)" d="M22.954 3.719c1.774 1.588 2.936 3.804 4.8 6.989 1.873 3.185 4.456 7.339 3.476 9.815s-5.538 3.275-9.843 4.899c-4.305 1.624-8.358 4.064-12.086 3.589s-7.132-3.867-7.988-7.617c-0.865-3.759 0.81-7.878 2.017-11.628 1.198-3.75 1.927-7.134 4.026-8.666s5.566-1.203 8.502-0.566c2.936 0.645 5.322 1.597 7.096 3.185z"></path>
<path fill="#d3d3d3" style="fill: var(--color11, #d3d3d3)" d="M6.746 30.436h-1.234v1.456h-1.81v-1.456h-3.702v-0.55l4.278-5.824h1.234v4.822h1.234v1.552zM3.702 28.884v-1.814l-1.294 1.814h1.294z"></path>
<path fill="#d3d3d3" style="fill: var(--color11, #d3d3d3)" d="M7.776 27.989c0-2.256 0.659-4.035 2.957-4.035 2.287 0 2.923 1.779 2.923 4.035 0 2.244-0.635 4.011-2.923 4.011-2.299 0-2.957-1.767-2.957-4.011zM11.85 27.989c0-1.361-0.264-2.411-1.114-2.411-0.863 0-1.162 1.050-1.162 2.411 0 1.349 0.299 2.375 1.162 2.375 0.851 0.002 1.114-1.027 1.114-2.375z"></path>
<path fill="#d3d3d3" style="fill: var(--color11, #d3d3d3)" d="M21.1 30.436h-1.234v1.456h-1.809v-1.456h-3.703v-0.55l4.278-5.824h1.234v4.822h1.234v1.552zM18.056 28.884v-1.814l-1.294 1.814h1.294z"></path>
<path fill="#de8e68" style="fill: var(--color12, #de8e68)" d="M21.165 30.472h0.671v-0.566h-0.671v0.566z"></path>
<path fill="#000" style="fill: var(--color9, #000)" d="M21.898 30.384v0.566h-1.596v-0.206l0.83-0.36h0.766z"></path>
<path fill="#de8e68" style="fill: var(--color12, #de8e68)" d="M10.739 23.533h0.671v-0.566h-0.671v0.566z"></path>
<path fill="#000" style="fill: var(--color9, #000)" d="M11.473 23.444v0.566h-1.595v-0.205l0.83-0.36h0.765z"></path>
<path fill="#56cad8" style="fill: var(--color13, #56cad8)" d="M21.141 15.879c0.034 0.321 0.746 14.177 0.746 14.177h-0.746l-3.63-13.046 3.63-1.131z"></path>
<path fill="#74d5de" style="fill: var(--color14, #74d5de)" d="M21.525 14.352c0 1.882-0.694 3.575-2.1 3.575-1.93 0-4.485-1.226-5.188-1.917-0.175 0.517-2.664 7.029-2.664 7.029h-1.031c0 0 0.661-7.582 1.899-9.526 0.407-0.54 3.731-0.405 5.411 0s3.673 0.84 3.673 0.84z"></path>
<path fill="#d37c59" style="fill: var(--color15, #d37c59)" d="M16.54 3.389c0.012-0.058 0.044-0.11 0.092-0.146s0.107-0.053 0.166-0.048c0.151 0.011 0.398 0.408 0.398 0.73s-0.091 0.443-0.064 0.676c0.028 0.234 0.625 3.403 0.625 3.596 0.151 0.011 0.69-0.064 0.69-0.064l-0.377 1.514h-1.099l-0.71-6.098 0.279-0.161z"></path>
<path fill="#000" style="fill: var(--color9, #000)" d="M17.594 3.928l-0.231 0.932c0 0-2.284-0.264-2.533-0.326s0.126-1.602 0.382-1.539 2.382 0.933 2.382 0.933z"></path>
<path fill="#fed385" style="fill: var(--color16, #fed385)" d="M19.686 6.685c2.921 0 2.201 7.519 1.86 7.8s-3.973-0.668-4.274-1.087c-0.302-0.419 0.272-6.713 2.415-6.713z"></path>
<path fill="#de8e68" style="fill: var(--color12, #de8e68)" d="M18.643 8.594c-0.16 0.054-1.102 0.42-1.102 0.42-0.016-0.189-0.739-3.928-0.784-4.157 0.091-0.229 0.136-0.473 0.133-0.719 0-0.614-0.25-1.112-0.559-1.112s-0.559 0.498-0.559 1.112c-0.004 0.257 0.045 0.512 0.146 0.749-0.035 0.467-0.346 4.906 0.289 5.539 0.67 0.668 2.3 0.066 3.291-0.383 0.212-0.073-0.077-1.658-0.855-1.448z"></path>
<path fill="#000" style="fill: var(--color9, #000)" d="M17.944 4.313l-0.591-0.156-0.11 0.411 0.591 0.156 0.11-0.411z"></path>
<path fill="#fed892" style="fill: var(--color17, #fed892)" d="M21.547 8.066c0.445 0.861-1.318 2.412-1.806 2.297s-1.274-1.849-1.127-2.161c0.147-0.311 2.5-0.974 2.933-0.136z"></path>
<path fill="#d37c59" style="fill: var(--color15, #d37c59)" d="M19.865 7.414c0 0.146-0.892 0.183-0.892 0v-1.678h0.892v1.678z"></path>
<path fill="#dc8e6c" style="fill: var(--color18, #dc8e6c)" d="M19.096 6.71c0.643 0 1.165-0.84 1.165-1.877s-0.521-1.877-1.165-1.877c-0.643 0-1.165 0.84-1.165 1.877s0.522 1.877 1.165 1.877z"></path>
<path fill="#000" style="fill: var(--color9, #000)" d="M18.224 3.59c-0.009 0.135 0.018 0.269 0.079 0.39s0.152 0.223 0.266 0.297c0.347 0.236 0.595 0.132 0.85 0.354 0.134 0.134 0.464 0.393 0.467 0.793 0 0.296 0.097 0.445 0.183 0.445s0.311-0.059 0.456-0.059c1.425 0 3.099 1.466 6.309 1.466 1.677 0 4.309-0.421 4.309-2.875 0-1.325-0.479-2.926-3.009-2.926-1.607 0-2.733 0.786-4.053 0.786-1.696 0-2.349-0.612-3.521-0.612-0.834 0-2.712 0.482-2.712 1.743 0 0.479 0.151 0.618 0.197 0.643 0.015-0.053 0.107-0.325 0.179-0.445z"></path>
<path fill="#dc8e6c" style="fill: var(--color18, #dc8e6c)" d="M19.765 5.574c0.164 0 0.297-0.133 0.297-0.296s-0.133-0.296-0.297-0.296c-0.164 0-0.297 0.133-0.297 0.296s0.133 0.296 0.297 0.296z"></path>
</symbol>
<symbol id="icon-Basket" viewBox="0 0 32 32">
<path stroke-linejoin="round" stroke-linecap="round" stroke-miterlimit="4" stroke-width="3" d="M4.8 7.6h22.4l-2.212 19.908c-0.076 0.685-0.402 1.318-0.915 1.778s-1.179 0.714-1.868 0.714h-12.41c-0.689 0-1.354-0.254-1.868-0.714s-0.839-1.093-0.915-1.778l-2.212-19.908z"></path>
<path stroke-linejoin="round" stroke-linecap="round" stroke-miterlimit="4" stroke-width="3" d="M9.483 3.606c0.226-0.48 0.585-0.886 1.033-1.171s0.968-0.435 1.499-0.435h7.969c0.531-0 1.052 0.151 1.5 0.435s0.807 0.69 1.034 1.171l1.882 3.994h-16.8l1.883-3.994z"></path>
<path stroke-linejoin="round" stroke-linecap="round" stroke-miterlimit="4" stroke-width="3" d="M2 7.6h28"></path>
<path stroke-linejoin="round" stroke-linecap="round" stroke-miterlimit="4" stroke-width="3" d="M13.2 14.6v7"></path>
<path stroke-linejoin="round" stroke-linecap="round" stroke-miterlimit="4" stroke-width="3" d="M18.8 14.6v7"></path>
</symbol>
<symbol id="icon-lucide_settings" viewBox="0 0 32 32">
<path fill="none" stroke="#fe5f00" style="stroke: var(--color19, #fe5f00)" stroke-linejoin="round" stroke-linecap="round" stroke-miterlimit="4" stroke-width="2.6667" d="M26.667 9.333h-12"></path>
<path fill="none" stroke="#fe5f00" style="stroke: var(--color19, #fe5f00)" stroke-linejoin="round" stroke-linecap="round" stroke-miterlimit="4" stroke-width="2.6667" d="M18.667 22.667h-12"></path>
<path fill="none" stroke="#fe5f00" style="stroke: var(--color19, #fe5f00)" stroke-linejoin="round" stroke-linecap="round" stroke-miterlimit="4" stroke-width="2.6667" d="M22.667 26.667c2.209 0 4-1.791 4-4s-1.791-4-4-4c-2.209 0-4 1.791-4 4s1.791 4 4 4z"></path>
<path fill="none" stroke="#fe5f00" style="stroke: var(--color19, #fe5f00)" stroke-linejoin="round" stroke-linecap="round" stroke-miterlimit="4" stroke-width="2.6667" d="M9.333 13.333c2.209 0 4-1.791 4-4s-1.791-4-4-4c-2.209 0-4 1.791-4 4s1.791 4 4 4z"></path>
</symbol>
<symbol id="icon-Circle" viewBox="0 0 32 32">
<path fill="#fff" style="fill: var(--color20, #fff)" d="M16 0c8.837 0 16 7.163 16 16s-7.163 16-16 16c-8.837 0-16-7.163-16-16s7.163-16 16-16z"></path>
</symbol>
<symbol id="icon-Check-mark" viewBox="0 0 32 32">
<path fill="none" stroke="#fff" style="stroke: var(--color20, #fff)" stroke-linejoin="round" stroke-linecap="round" stroke-miterlimit="4" stroke-width="5.8182" d="M2.909 18.036l7.481 8.145 18.701-20.364"></path>
</symbol>
<symbol id="icon-Vector-4" viewBox="0 0 32 32">
<path d="M0.704 7.134c0.451-0.47 1.063-0.734 1.701-0.734s1.25 0.264 1.701 0.734l11.908 12.413 11.908-12.413c0.454-0.457 1.061-0.71 1.692-0.704s1.234 0.269 1.68 0.734c0.446 0.465 0.699 1.094 0.705 1.751s-0.237 1.291-0.675 1.764l-13.609 14.186c-0.451 0.47-1.063 0.734-1.701 0.734s-1.25-0.264-1.701-0.734l-13.609-14.186c-0.451-0.47-0.704-1.108-0.704-1.773s0.253-1.303 0.704-1.773z"></path>
</symbol>
<symbol id="icon-Change" viewBox="0 0 32 32">
<path d="M29.467 26.146c0.167-0.164 0.3-0.36 0.392-0.577s0.14-0.45 0.142-0.686c0.002-0.236-0.042-0.47-0.13-0.689s-0.218-0.417-0.382-0.584c-0.164-0.167-0.359-0.299-0.574-0.388s-0.445-0.134-0.677-0.132c-0.232 0.002-0.461 0.051-0.674 0.144s-0.406 0.229-0.567 0.398l-2.259 2.299v-13.487c0-0.472-0.184-0.924-0.512-1.257s-0.772-0.521-1.236-0.521c-0.463 0-0.908 0.187-1.235 0.521s-0.512 0.786-0.512 1.257v13.487l-2.259-2.299c-0.33-0.324-0.771-0.503-1.229-0.499s-0.896 0.191-1.22 0.521c-0.324 0.33-0.508 0.776-0.512 1.242s0.172 0.915 0.49 1.251l5.242 5.333c0.328 0.333 0.772 0.521 1.235 0.521s0.908-0.187 1.235-0.521l5.242-5.333zM15.488 5.854c0.318 0.335 0.494 0.784 0.49 1.251s-0.188 0.912-0.512 1.242c-0.324 0.33-0.762 0.517-1.22 0.521s-0.9-0.175-1.229-0.499l-2.259-2.299v13.487c0 0.472-0.184 0.924-0.512 1.257s-0.772 0.521-1.236 0.521c-0.463 0-0.908-0.187-1.236-0.521s-0.512-0.786-0.512-1.257v-13.487l-2.259 2.299c-0.161 0.17-0.354 0.305-0.567 0.398s-0.442 0.142-0.674 0.144c-0.232 0.002-0.462-0.043-0.677-0.132s-0.41-0.221-0.574-0.388c-0.164-0.167-0.294-0.365-0.382-0.584s-0.132-0.453-0.13-0.689c0.002-0.236 0.050-0.469 0.142-0.686s0.225-0.413 0.392-0.577l5.242-5.333c0.328-0.333 0.772-0.521 1.235-0.521s0.908 0.187 1.235 0.521l5.242 5.333z"></path>
</symbol>
<symbol id="icon-Human" viewBox="0 0 32 32">
<path fill="none" stroke="#fe5f00" style="stroke: var(--color19, #fe5f00)" stroke-linejoin="round" stroke-linecap="round" stroke-miterlimit="4" stroke-width="3.2" d="M26.817 30.312v-2.963c0-1.572-0.594-3.079-1.651-4.19s-2.491-1.736-3.986-1.736h-11.275c-1.495 0-2.929 0.624-3.986 1.736s-1.651 2.619-1.651 4.19v2.963"></path>
<path fill="none" stroke="#fe5f00" style="stroke: var(--color19, #fe5f00)" stroke-linejoin="round" stroke-linecap="round" stroke-miterlimit="4" stroke-width="3.2" d="M15.542 15.497c3.114 0 5.638-2.653 5.638-5.926s-2.524-5.926-5.638-5.926c-3.114 0-5.638 2.653-5.638 5.926s2.524 5.926 5.638 5.926z"></path>
</symbol>
<symbol id="icon-Shopping-cart" viewBox="0 0 32 32">
<path fill="none" stroke="#fe5f00" style="stroke: var(--color19, #fe5f00)" stroke-linejoin="round" stroke-linecap="round" stroke-miterlimit="4" stroke-width="2.6667" d="M11.259 29.037c1.309 0 2.37-1.061 2.37-2.37s-1.061-2.37-2.37-2.37-2.37 1.061-2.37 2.37c0 1.309 1.061 2.37 2.37 2.37z"></path>
<path fill="none" stroke="#fe5f00" style="stroke: var(--color19, #fe5f00)" stroke-linejoin="round" stroke-linecap="round" stroke-miterlimit="4" stroke-width="2.6667" d="M25.481 29.037c1.309 0 2.37-1.061 2.37-2.37s-1.061-2.37-2.37-2.37c-1.309 0-2.37 1.061-2.37 2.37s1.061 2.37 2.37 2.37z"></path>
<path fill="none" stroke="#fe5f00" style="stroke: var(--color19, #fe5f00)" stroke-linejoin="round" stroke-linecap="round" stroke-miterlimit="4" stroke-width="2.6667" d="M8.498 8.889h20.539l-1.991 9.944c-0.108 0.546-0.405 1.036-0.839 1.385s-0.976 0.534-1.532 0.524h-12.527c-0.579 0.005-1.139-0.202-1.576-0.582s-0.719-0.906-0.794-1.48l-1.801-13.653c-0.075-0.57-0.354-1.093-0.786-1.472s-0.986-0.589-1.561-0.59h-2.667"></path>
</symbol>
<symbol id="icon-Search" viewBox="0 0 32 32">
<path fill="#adadad" style="fill: var(--color21, #adadad)" d="M12.973 0c2.418-0 4.789 0.676 6.843 1.951s3.712 3.1 4.785 5.267c1.073 2.167 1.519 4.591 1.287 6.998s-1.132 4.702-2.598 6.625l8.205 8.208c0.31 0.311 0.49 0.729 0.504 1.168s-0.141 0.867-0.432 1.197c-0.291 0.33-0.696 0.536-1.133 0.578s-0.875-0.085-1.222-0.354l-0.163-0.144-8.208-8.205c-1.638 1.249-3.55 2.090-5.578 2.454s-4.113 0.239-6.083-0.364c-1.97-0.602-3.768-1.665-5.246-3.101s-2.592-3.202-3.252-5.154c-0.659-1.952-0.844-4.032-0.54-6.070s1.090-3.973 2.291-5.647c1.201-1.674 2.784-3.037 4.616-3.978s3.863-1.431 5.923-1.431zM12.973 3.46c-2.523 0-4.943 1.002-6.728 2.787s-2.787 4.204-2.787 6.727c0 2.523 1.002 4.943 2.787 6.727s4.204 2.787 6.728 2.787c2.523 0 4.943-1.002 6.728-2.787s2.787-4.204 2.787-6.727-1.002-4.943-2.787-6.727c-1.784-1.784-4.204-2.787-6.728-2.787z"></path>
</symbol>
</defs>
</svg>
